<svg width="286" height="59" viewBox="0 0 286 59" fill="none" xmlns="http://www.w3.org/2000/svg">
<path d="M0.248 46V1.584H6.264V46H0.248ZM4.344 46V40.496H28.152V46H4.344ZM47.112 46.64C44.1253 46.64 41.4373 45.936 39.048 44.528C36.6587 43.12 34.76 41.2213 33.352 38.832C31.944 36.4 31.24 33.6907 31.24 30.704C31.24 27.76 31.944 25.1147 33.352 22.768C34.76 20.3787 36.6587 18.48 39.048 17.072C41.4373 15.664 44.1253 14.96 47.112 14.96C50.056 14.96 52.7227 15.664 55.112 17.072C57.544 18.4373 59.464 20.3147 60.872 22.704C62.28 25.0933 62.984 27.76 62.984 30.704C62.984 33.6907 62.28 36.4 60.872 38.832C59.464 41.2213 57.544 43.12 55.112 44.528C52.7227 45.936 50.056 46.64 47.112 46.64ZM47.112 41.072C49.032 41.072 50.7387 40.624 52.232 39.728C53.7253 38.832 54.8987 37.616 55.752 36.08C56.6053 34.5013 57.032 32.7093 57.032 30.704C57.032 28.7413 56.584 26.992 55.688 25.456C54.8347 23.92 53.6613 22.7253 52.168 21.872C50.7173 20.976 49.032 20.528 47.112 20.528C45.192 20.528 43.4853 20.976 41.992 21.872C40.4987 22.7253 39.3253 23.92 38.472 25.456C37.6187 26.992 37.192 28.7413 37.192 30.704C37.192 32.7093 37.6187 34.5013 38.472 36.08C39.3253 37.616 40.4987 38.832 41.992 39.728C43.4853 40.624 45.192 41.072 47.112 41.072ZM83.362 46.64C80.3753 46.64 77.6873 45.936 75.298 44.528C72.9087 43.12 71.01 41.2213 69.602 38.832C68.194 36.4 67.49 33.6907 67.49 30.704C67.49 27.76 68.194 25.1147 69.602 22.768C71.01 20.3787 72.9087 18.48 75.298 17.072C77.6873 15.664 80.3753 14.96 83.362 14.96C86.306 14.96 88.9727 15.664 91.362 17.072C93.794 18.4373 95.714 20.3147 97.122 22.704C98.53 25.0933 99.234 27.76 99.234 30.704C99.234 33.6907 98.53 36.4 97.122 38.832C95.714 41.2213 93.794 43.12 91.362 44.528C88.9727 45.936 86.306 46.64 83.362 46.64ZM83.362 41.072C85.282 41.072 86.9887 40.624 88.482 39.728C89.9753 38.832 91.1487 37.616 92.002 36.08C92.8553 34.5013 93.282 32.7093 93.282 30.704C93.282 28.7413 92.834 26.992 91.938 25.456C91.0847 23.92 89.9113 22.7253 88.418 21.872C86.9673 20.976 85.282 20.528 83.362 20.528C81.442 20.528 79.7353 20.976 78.242 21.872C76.7487 22.7253 75.5753 23.92 74.722 25.456C73.8687 26.992 73.442 28.7413 73.442 30.704C73.442 32.7093 73.8687 34.5013 74.722 36.08C75.5753 37.616 76.7487 38.832 78.242 39.728C79.7353 40.624 81.442 41.072 83.362 41.072ZM121.724 46.64C119.42 46.64 117.329 46.1707 115.452 45.232C113.617 44.2507 112.145 42.9067 111.036 41.2C109.927 39.4933 109.308 37.552 109.18 35.376V26.224C109.308 24.0053 109.927 22.064 111.036 20.4C112.188 18.6933 113.681 17.3707 115.516 16.432C117.393 15.4507 119.463 14.96 121.724 14.96C124.497 14.96 126.993 15.664 129.212 17.072C131.473 18.48 133.244 20.3787 134.524 22.768C135.804 25.1573 136.444 27.8453 136.444 30.832C136.444 33.8187 135.804 36.5067 134.524 38.896C133.244 41.2853 131.473 43.184 129.212 44.592C126.993 45.9573 124.497 46.64 121.724 46.64ZM120.764 41.2C122.684 41.2 124.369 40.752 125.82 39.856C127.271 38.96 128.423 37.744 129.276 36.208C130.129 34.6293 130.556 32.816 130.556 30.768C130.556 28.7627 130.129 26.9707 129.276 25.392C128.423 23.8133 127.271 22.5973 125.82 21.744C124.369 20.848 122.705 20.4 120.828 20.4C118.908 20.4 117.223 20.848 115.772 21.744C114.321 22.5973 113.191 23.8133 112.38 25.392C111.569 26.9707 111.164 28.784 111.164 30.832C111.164 32.8373 111.548 34.6293 112.316 36.208C113.127 37.744 114.257 38.96 115.708 39.856C117.201 40.752 118.887 41.2 120.764 41.2ZM105.724 58.736V15.6H111.484V23.6L110.396 30.96L111.484 38.384V58.736H105.724ZM146.709 46V2.864H152.469V46H146.709ZM139.221 20.848V15.6H159.957V20.848H139.221ZM165.599 46V15.6H171.359V46H165.599ZM171.359 28.656L169.183 27.696C169.183 23.8133 170.079 20.72 171.871 18.416C173.663 16.112 176.244 14.96 179.615 14.96C181.151 14.96 182.538 15.2373 183.775 15.792C185.012 16.304 186.164 17.1787 187.231 18.416L183.455 22.32C182.815 21.6373 182.111 21.1467 181.343 20.848C180.575 20.5493 179.679 20.4 178.655 20.4C176.522 20.4 174.772 21.0827 173.407 22.448C172.042 23.8133 171.359 25.8827 171.359 28.656ZM203.215 46.64C200.441 46.64 197.924 45.9573 195.663 44.592C193.401 43.184 191.609 41.2853 190.286 38.896C189.007 36.5067 188.367 33.8187 188.367 30.832C188.367 27.8453 189.007 25.1573 190.286 22.768C191.609 20.3787 193.38 18.48 195.599 17.072C197.86 15.664 200.399 14.96 203.215 14.96C205.519 14.96 207.567 15.4507 209.359 16.432C211.193 17.3707 212.665 18.6933 213.775 20.4C214.884 22.064 215.503 24.0053 215.631 26.224V35.376C215.503 37.552 214.884 39.4933 213.775 41.2C212.708 42.9067 211.257 44.2507 209.423 45.232C207.631 46.1707 205.561 46.64 203.215 46.64ZM204.175 41.2C207.033 41.2 209.337 40.24 211.087 38.32C212.836 36.3573 213.711 33.8613 213.711 30.832C213.711 28.7413 213.305 26.928 212.495 25.392C211.727 23.8133 210.617 22.5973 209.167 21.744C207.716 20.848 206.031 20.4 204.111 20.4C202.191 20.4 200.484 20.848 198.991 21.744C197.54 22.64 196.388 23.8773 195.535 25.456C194.724 26.992 194.319 28.7627 194.319 30.768C194.319 32.816 194.724 34.6293 195.535 36.208C196.388 37.744 197.561 38.96 199.055 39.856C200.548 40.752 202.255 41.2 204.175 41.2ZM213.327 46V37.808L214.415 30.384L213.327 23.024V15.6H219.151V46H213.327ZM241.425 46.64C238.438 46.64 235.729 45.936 233.297 44.528C230.907 43.12 229.009 41.2213 227.601 38.832C226.235 36.4 225.553 33.712 225.553 30.768C225.553 27.7813 226.235 25.0933 227.601 22.704C229.009 20.3147 230.907 18.4373 233.297 17.072C235.729 15.664 238.438 14.96 241.425 14.96C243.771 14.96 245.947 15.408 247.953 16.304C249.958 17.1573 251.686 18.416 253.137 20.08L249.297 23.92C248.358 22.8107 247.206 21.9787 245.841 21.424C244.518 20.8267 243.046 20.528 241.425 20.528C239.505 20.528 237.798 20.976 236.305 21.872C234.811 22.7253 233.638 23.92 232.785 25.456C231.931 26.992 231.505 28.7627 231.505 30.768C231.505 32.7733 231.931 34.544 232.785 36.08C233.638 37.616 234.811 38.832 236.305 39.728C237.798 40.624 239.505 41.072 241.425 41.072C243.046 41.072 244.518 40.7947 245.841 40.24C247.206 39.6427 248.379 38.7893 249.361 37.68L253.137 41.52C251.729 43.1413 250.001 44.4 247.953 45.296C245.947 46.192 243.771 46.64 241.425 46.64ZM278.305 46L264.097 30.448L278.177 15.6H285.153L269.473 31.984L269.729 28.656L285.729 46H278.305ZM258.849 46V0.303997H264.609V46H258.849Z" fill="black"/>
</svg>
